<svg width="1920" height="960" viewBox="0 0 1920 960" fill="none" xmlns="http://www.w3.org/2000/svg">
<rect width="1920" height="960" fill="#F34C4C"/>
<rect x="1200" width="120" height="120" fill="#FC5F5F" fill-opacity="0.62"/>
<rect x="1440" width="120" height="120" fill="#FC5F5F" fill-opacity="0.62"/>
<rect x="1680" width="120" height="120" fill="#FC5F5F" fill-opacity="0.62"/>
<rect x="120" y="120" width="120" height="120" fill="#FC5F5F" fill-opacity="0.62"/>
<rect x="360" y="120" width="120" height="120" fill="#FC5F5F" fill-opacity="0.62"/>
<rect x="600" y="120" width="120" height="120" fill="#FC5F5F" fill-opacity="0.62"/>
<rect x="840" y="120" width="120" height="120" fill="#FC5F5F" fill-opacity="0.62"/>
<rect x="1080" y="120" width="120" height="120" fill="#FC5F5F" fill-opacity="0.62"/>
<rect x="1320" y="120" width="120" height="120" fill="#FC5F5F" fill-opacity="0.62"/>
<rect x="1560" y="120" width="120" height="120" fill="#FC5F5F" fill-opacity="0.62"/>
<rect x="1800" y="120" width="120" height="120" fill="#FC5F5F" fill-opacity="0.62"/>
<rect y="240" width="120" height="120" fill="#FC5F5F" fill-opacity="0.62"/>
<rect x="240" y="240" width="120" height="120" fill="#FC5F5F" fill-opacity="0.62"/>
<rect x="480" y="240" width="120" height="120" fill="#FC5F5F" fill-opacity="0.62"/>
<rect x="720" y="240" width="120" height="120" fill="#FC5F5F" fill-opacity="0.62"/>
<rect x="960" y="240" width="120" height="120" fill="#FC5F5F" fill-opacity="0.62"/>
<rect x="1200" y="240" width="120" height="120" fill="#FC5F5F" fill-opacity="0.62"/>
<rect x="1440" y="240" width="120" height="120" fill="#FC5F5F" fill-opacity="0.62"/>
<rect x="1680" y="240" width="120" height="120" fill="#FC5F5F" fill-opacity="0.62"/>
<rect x="120" y="360" width="120" height="120" fill="#FC5F5F" fill-opacity="0.62"/>
<rect x="360" y="360" width="120" height="120" fill="#FC5F5F" fill-opacity="0.62"/>
<rect x="600" y="360" width="120" height="120" fill="#FC5F5F" fill-opacity="0.62"/>
<rect x="840" y="360" width="120" height="120" fill="#FC5F5F" fill-opacity="0.62"/>
<rect x="1080" y="360" width="120" height="120" fill="#FC5F5F" fill-opacity="0.62"/>
<rect x="1320" y="360" width="120" height="120" fill="#FC5F5F" fill-opacity="0.62"/>
<rect x="1560" y="360" width="120" height="120" fill="#FC5F5F" fill-opacity="0.62"/>
<rect x="1800" y="360" width="120" height="120" fill="#FC5F5F" fill-opacity="0.62"/>
<rect y="480" width="120" height="120" fill="#FC5F5F" fill-opacity="0.62"/>
<rect x="240" y="480" width="120" height="120" fill="#FC5F5F" fill-opacity="0.62"/>
<rect x="480" y="480" width="120" height="120" fill="#FC5F5F" fill-opacity="0.62"/>
<rect x="720" y="480" width="120" height="120" fill="#FC5F5F" fill-opacity="0.62"/>
<rect x="960" y="480" width="120" height="120" fill="#FC5F5F" fill-opacity="0.62"/>
<rect x="1200" y="480" width="120" height="120" fill="#FC5F5F" fill-opacity="0.62"/>
<rect x="1440" y="480" width="120" height="120" fill="#FC5F5F" fill-opacity="0.62"/>
<rect x="1680" y="480" width="120" height="120" fill="#FC5F5F" fill-opacity="0.62"/>
<rect x="120" y="600" width="120" height="120" fill="#FC5F5F" fill-opacity="0.62"/>
<rect x="360" y="600" width="120" height="120" fill="#FC5F5F" fill-opacity="0.62"/>
<rect x="600" y="600" width="120" height="120" fill="#FC5F5F" fill-opacity="0.62"/>
<rect x="840" y="600" width="120" height="120" fill="#FC5F5F" fill-opacity="0.62"/>
<rect x="1080" y="600" width="120" height="120" fill="#FC5F5F" fill-opacity="0.62"/>
<rect x="1320" y="600" width="120" height="120" fill="#FC5F5F" fill-opacity="0.62"/>
<rect x="1560" y="600" width="120" height="120" fill="#FC5F5F" fill-opacity="0.62"/>
<rect x="1800" y="600" width="120" height="120" fill="#FC5F5F" fill-opacity="0.62"/>
<rect y="720" width="120" height="120" fill="#FC5F5F" fill-opacity="0.62"/>
<rect x="240" y="720" width="120" height="120" fill="#FC5F5F" fill-opacity="0.62"/>
<rect x="480" y="720" width="120" height="120" fill="#FC5F5F" fill-opacity="0.62"/>
<rect x="720" y="720" width="120" height="120" fill="#FC5F5F" fill-opacity="0.62"/>
<rect x="960" y="720" width="120" height="120" fill="#FC5F5F" fill-opacity="0.62"/>
<rect x="1200" y="720" width="120" height="120" fill="#FC5F5F" fill-opacity="0.62"/>
<rect x="1440" y="720" width="120" height="120" fill="#FC5F5F" fill-opacity="0.62"/>
<rect x="1680" y="720" width="120" height="120" fill="#FC5F5F" fill-opacity="0.62"/>
<rect x="120" y="840" width="120" height="120" fill="#FC5F5F" fill-opacity="0.62"/>
<rect x="360" y="840" width="120" height="120" fill="#FC5F5F" fill-opacity="0.62"/>
<rect x="600" y="840" width="120" height="120" fill="#FC5F5F" fill-opacity="0.62"/>
<rect x="840" y="840" width="120" height="120" fill="#FC5F5F" fill-opacity="0.62"/>
<rect x="1080" y="840" width="120" height="120" fill="#FC5F5F" fill-opacity="0.62"/>
<rect x="1320" y="840" width="120" height="120" fill="#FC5F5F" fill-opacity="0.62"/>
<rect x="1560" y="840" width="120" height="120" fill="#FC5F5F" fill-opacity="0.62"/>
<rect x="1800" y="840" width="120" height="120" fill="#FC5F5F" fill-opacity="0.62"/>
<rect width="120" height="120" fill="#FC5F5F" fill-opacity="0.62"/>
<rect x="240" width="120" height="120" fill="#FC5F5F" fill-opacity="0.62"/>
<rect x="480" width="120" height="120" fill="#FC5F5F" fill-opacity="0.62"/>
<rect x="720" width="120" height="120" fill="#FC5F5F" fill-opacity="0.62"/>
<rect x="960" width="120" height="120" fill="#FC5F5F" fill-opacity="0.62"/>
</svg>
