<svg width="70" height="70" viewBox="0 0 70 70" fill="none" xmlns="http://www.w3.org/2000/svg">
<path d="M0 0H70V70H0V0Z" fill="#FF8716"/>
<path d="M51.9924 40.1017L54.4822 34.3954C54.8989 33.4383 54.0968 32.4174 52.9196 32.4174H46.8254C47.9713 30.6945 48.6797 28.7165 48.6797 26.5835V26.5561C52.7633 25.8451 55.3468 24.8151 55.3468 23.6665C55.3468 22.4541 52.5029 21.3785 48.0442 20.6584C47.0858 17.6685 45.2315 14.6604 43.8148 13.1108C42.8251 12.026 41.1167 11.6887 39.6999 12.3086L36.8247 13.5665C35.8871 13.9767 34.7829 13.9767 33.8453 13.5665L30.9701 12.3086C29.5533 11.6887 27.8449 12.026 26.8552 13.1108C25.4489 14.6604 23.5842 17.6685 22.6258 20.6584C18.1775 21.3785 15.3336 22.4541 15.3336 23.6665C15.3336 24.8151 17.9171 25.8451 22.0007 26.5561V26.5835C22.0007 28.7165 22.7091 30.6945 23.855 32.4174H17.865C16.667 32.4174 15.8649 33.4839 16.3336 34.4501L19.0213 39.9377C14.844 42.0616 12 45.9721 12 50.5025V54.5863C12 56.8378 14.0939 58.67 16.667 58.67H54.003C56.5761 58.67 58.67 56.8378 58.67 54.5863V50.5025C58.67 46.0906 55.9823 42.2621 51.9924 40.1017ZM30.3346 55.753L26.001 38.2513L31.168 41.1683L33.6682 44.8144L30.3346 55.753ZM40.3354 55.753L37.0018 44.8144L39.502 41.1683L44.669 38.2513L40.3354 55.753ZM44.6794 28.5433C44.2731 29.628 43.9502 30.7857 42.9605 31.5879C41.9084 32.4356 37.9602 33.6297 36.2934 29.309C36.0017 28.5433 34.6891 28.5433 34.387 29.309C32.6161 33.885 28.5533 32.2624 27.7199 31.5879C26.7302 30.7857 26.3969 29.628 26.001 28.5433C25.9177 28.3154 25.3447 28.0237 25.3447 28.0146V27.0301C28.2928 27.3583 31.6993 27.5588 35.3454 27.5588C38.9915 27.5588 42.398 27.3674 45.3461 27.0301V28.0146C45.3357 28.0237 44.7628 28.3063 44.6794 28.5433Z" fill="#F5E4E4"/>
</svg>
