<svg width="70" height="70" viewBox="0 0 70 70" fill="none" xmlns="http://www.w3.org/2000/svg">
<path d="M0 0H70V70H0V0Z" fill="#FF8716"/>
<path d="M35 37.9167C42.2461 37.9167 48.125 32.0378 48.125 24.7917C48.125 17.5456 42.2461 11.6667 35 11.6667C27.7539 11.6667 21.875 17.5456 21.875 24.7917C21.875 32.0378 27.7539 37.9167 35 37.9167ZM46.6667 40.8334H41.6446C39.6211 41.763 37.3698 42.2917 35 42.2917C32.6302 42.2917 30.388 41.763 28.3555 40.8334H23.3334C16.8893 40.8334 11.6667 46.056 11.6667 52.5V53.9584C11.6667 56.3737 13.6263 58.3334 16.0417 58.3334H53.9584C56.3737 58.3334 58.3334 56.3737 58.3334 53.9584V52.5C58.3334 46.056 53.1107 40.8334 46.6667 40.8334Z" fill="#F5E4E4"/>
</svg>
