<svg width="75" height="77" viewBox="0 0 75 77" fill="none" xmlns="http://www.w3.org/2000/svg">
<g clip-path="url(#clip0_69_1420)">
<path d="M36.5039 24.0973L12.4993 44.3967V66.3056C12.4993 66.8728 12.7188 67.4169 13.1094 67.818C13.5001 68.2191 14.03 68.4444 14.5825 68.4444L29.1725 68.4057C29.7232 68.4028 30.2503 68.1763 30.6388 67.7754C31.0272 67.3746 31.2452 66.8322 31.2452 66.2668V53.4722C31.2452 52.905 31.4647 52.3609 31.8554 51.9598C32.246 51.5587 32.7759 51.3333 33.3284 51.3333H41.6611C42.2136 51.3333 42.7434 51.5587 43.1341 51.9598C43.5248 52.3609 43.7443 52.905 43.7443 53.4722V66.2574C43.7434 66.5389 43.7967 66.8177 43.901 67.078C44.0053 67.3383 44.1586 67.5749 44.3521 67.7742C44.5456 67.9735 44.7756 68.1316 45.0287 68.2396C45.2819 68.3475 45.5533 68.403 45.8274 68.403L60.4123 68.4444C60.9647 68.4444 61.4946 68.2191 61.8853 67.818C62.276 67.4169 62.4954 66.8728 62.4954 66.3056V44.3819L38.496 24.0973C38.2138 23.8638 37.8623 23.7364 37.5 23.7364C37.1376 23.7364 36.7861 23.8638 36.5039 24.0973V24.0973ZM74.4216 37.8944L63.537 28.6825V10.1664C63.537 9.74097 63.3724 9.33295 63.0794 9.03211C62.7864 8.73127 62.389 8.56226 61.9746 8.56226H54.6835C54.2692 8.56226 53.8718 8.73127 53.5788 9.03211C53.2858 9.33295 53.1211 9.74097 53.1211 10.1664V19.873L41.4645 10.0261C40.3459 9.08091 38.9421 8.56415 37.4934 8.56415C36.0447 8.56415 34.641 9.08091 33.5224 10.0261L0.565303 37.8944C0.407096 38.0287 0.276204 38.1936 0.180108 38.3799C0.0840108 38.5661 0.0245921 38.7699 0.00524641 38.9797C-0.0140992 39.1895 0.00700735 39.4012 0.0673602 39.6026C0.127713 39.804 0.226129 39.9913 0.356986 40.1536L3.67704 44.2977C3.80754 44.4607 3.96806 44.5956 4.1494 44.6947C4.33074 44.7939 4.52935 44.8553 4.73385 44.8755C4.93835 44.8958 5.14474 44.8744 5.34118 44.8127C5.53763 44.7509 5.72029 44.65 5.8787 44.5156L36.5039 18.6164C36.7861 18.3829 37.1376 18.2555 37.5 18.2555C37.8623 18.2555 38.2138 18.3829 38.496 18.6164L69.1225 44.5156C69.2807 44.65 69.463 44.751 69.6592 44.813C69.8554 44.875 70.0615 44.8966 70.2659 44.8768C70.4702 44.8569 70.6687 44.7959 70.8501 44.6972C71.0315 44.5986 71.1921 44.4642 71.3229 44.3017L74.6429 40.1576C74.7736 39.9943 74.8716 39.8061 74.9313 39.6038C74.9909 39.4015 75.011 39.1891 74.9905 38.9788C74.9699 38.7685 74.9091 38.5644 74.8114 38.3783C74.7138 38.1922 74.5813 38.0278 74.4216 37.8944V37.8944Z" fill="#FF8716"/>
<path d="M36.5056 24.335L12.501 44.6344V66.5433C12.501 67.1106 12.7205 67.6546 13.1111 68.0557C13.5018 68.4568 14.0317 68.6822 14.5842 68.6822L29.1742 68.6434C29.7249 68.6406 30.2521 68.414 30.6405 68.0132C31.0289 67.6124 31.2469 67.0699 31.2469 66.5045V53.71C31.2469 53.1427 31.4664 52.5987 31.8571 52.1975C32.2478 51.7964 32.7776 51.5711 33.3301 51.5711H41.6628C42.2153 51.5711 42.7452 51.7964 43.1358 52.1975C43.5265 52.5987 43.746 53.1427 43.746 53.71V66.4952C43.7451 66.7766 43.7984 67.0555 43.9027 67.3157C44.007 67.576 44.1603 67.8126 44.3538 68.0119C44.5473 68.2112 44.7773 68.3694 45.0304 68.4773C45.2836 68.5852 45.555 68.6407 45.8291 68.6407L60.414 68.6822C60.9665 68.6822 61.4963 68.4568 61.887 68.0557C62.2777 67.6546 62.4971 67.1106 62.4971 66.5433V44.6197L38.4977 24.335C38.2155 24.1015 37.8641 23.9742 37.5017 23.9742C37.1393 23.9742 36.7878 24.1015 36.5056 24.335V24.335ZM74.4233 38.1322L63.5387 28.9202V10.4042C63.5387 9.9787 63.3741 9.57068 63.0811 9.26984C62.7881 8.969 62.3907 8.79999 61.9763 8.79999H54.6852C54.2709 8.79999 53.8735 8.969 53.5805 9.26984C53.2875 9.57068 53.1229 9.9787 53.1229 10.4042V20.1107L41.4662 10.2638C40.3476 9.31864 38.9439 8.80188 37.4952 8.80188C36.0465 8.80188 34.6428 9.31864 33.5241 10.2638L0.567012 38.1322C0.408805 38.2664 0.277913 38.4314 0.181817 38.6176C0.0857198 38.8038 0.0263011 39.0076 0.0069554 39.2175C-0.0123903 39.4273 0.00871633 39.6389 0.0690692 39.8403C0.129422 40.0418 0.227838 40.229 0.358695 40.3914L3.67875 44.5355C3.80925 44.6984 3.96977 44.8333 4.15111 44.9324C4.33245 45.0316 4.53106 45.093 4.73556 45.1133C4.94006 45.1335 5.14645 45.1122 5.34289 45.0504C5.53934 44.9886 5.722 44.8877 5.8804 44.7534L36.5056 18.8541C36.7878 18.6206 37.1393 18.4933 37.5017 18.4933C37.8641 18.4933 38.2155 18.6206 38.4977 18.8541L69.1242 44.7534C69.2824 44.8877 69.4647 44.9888 69.6609 45.0507C69.8571 45.1127 70.0632 45.1344 70.2676 45.1145C70.4719 45.0946 70.6704 45.0336 70.8518 44.935C71.0332 44.8363 71.1938 44.7019 71.3246 44.5395L74.6446 40.3954C74.7754 40.2321 74.8734 40.0439 74.933 39.8416C74.9926 39.6393 75.0128 39.4268 74.9922 39.2165C74.9716 39.0062 74.9108 38.8021 74.8131 38.6161C74.7155 38.43 74.583 38.2655 74.4233 38.1322V38.1322Z" fill="#FF8716"/>
</g>
<defs>
<clipPath id="clip0_69_1420">
<rect width="75" height="77" fill="white"/>
</clipPath>
</defs>
</svg>
